<svg xmlns="http://www.w3.org/2000/svg" viewBox="0 0 200 200" width="200" height="200">
  <defs>
    <linearGradient id="elixirGradient" x1="0%" y1="0%" x2="100%" y2="100%">
      <stop offset="0%" style="stop-color:#4e2a84;stop-opacity:1" />
      <stop offset="100%" style="stop-color:#6e4a9e;stop-opacity:1" />
    </linearGradient>
    <linearGradient id="traceGradient" x1="0%" y1="0%" x2="0%" y2="100%">
      <stop offset="0%" style="stop-color:#a6d5fa;stop-opacity:0.8" />
      <stop offset="100%" style="stop-color:#4db8ff;stop-opacity:0.8" />
    </linearGradient>
  </defs>

  <!-- Background circle -->
  <circle cx="100" cy="100" r="95" fill="url(#elixirGradient)" opacity="0.1"/>

  <!-- Elixir droplet (simplified) -->
  <path d="M 100 40 Q 120 50 130 75 Q 135 95 130 110 Q 120 130 100 140 Q 80 130 70 110 Q 65 95 70 75 Q 80 50 100 40 Z"
        fill="url(#elixirGradient)"
        stroke="#4e2a84"
        stroke-width="2"/>

  <!-- Inner highlight on droplet -->
  <ellipse cx="105" cy="75" rx="8" ry="12" fill="white" opacity="0.3"/>

  <!-- Trace lines (representing observability/tracing) -->
  <g stroke="url(#traceGradient)" stroke-width="2" fill="none" opacity="0.9">
    <!-- Circular trace paths around the droplet -->
    <path d="M 50 100 Q 50 70 70 50" stroke-linecap="round"/>
    <path d="M 150 100 Q 150 70 130 50" stroke-linecap="round"/>
    <path d="M 60 140 Q 70 150 100 155" stroke-linecap="round"/>

    <!-- Trace dots -->
    <circle cx="50" cy="100" r="3" fill="#4db8ff"/>
    <circle cx="150" cy="100" r="3" fill="#4db8ff"/>
    <circle cx="70" cy="50" r="3" fill="#4db8ff"/>
    <circle cx="130" cy="50" r="3" fill="#4db8ff"/>
    <circle cx="60" cy="140" r="3" fill="#4db8ff"/>
    <circle cx="100" cy="155" r="3" fill="#4db8ff"/>
  </g>

  <!-- Signal waves (representing local-first nature) -->
  <g stroke="#a6d5fa" stroke-width="1.5" fill="none" opacity="0.6">
    <circle cx="100" cy="100" r="60"/>
    <circle cx="100" cy="100" r="70"/>
    <circle cx="100" cy="100" r="80"/>
  </g>

  <!-- Center dot -->
  <circle cx="100" cy="100" r="4" fill="#4db8ff"/>
</svg>
